<mxfile host="app.diagrams.net" modified="2022-08-28T23:10:20.345Z" agent="5.0 (Windows NT 10.0; Win64; x64) AppleWebKit/537.36 (KHTML, like Gecko) Chrome/104.0.0.0 Safari/537.36" etag="mqy21SF8pwzJJUjx9Egi" version="19.0.3" type="github">
  <diagram id="YNhJ-0_6Uoy3nFuwIE12" name="Página-1">
    <mxGraphModel dx="1182" dy="774" grid="1" gridSize="10" guides="1" tooltips="1" connect="1" arrows="1" fold="1" page="1" pageScale="1" pageWidth="827" pageHeight="1169" background="#F4F1DE" math="0" shadow="0">
      <root>
        <mxCell id="0" />
        <mxCell id="1" parent="0" />
        <mxCell id="A5XbHr8AYuqLLg5sCwWL-19" value="" style="edgeStyle=orthogonalEdgeStyle;rounded=0;orthogonalLoop=1;jettySize=auto;html=1;labelBackgroundColor=#F4F1DE;strokeColor=#E07A5F;fontColor=#393C56;" edge="1" parent="1" source="A5XbHr8AYuqLLg5sCwWL-1" target="A5XbHr8AYuqLLg5sCwWL-18">
          <mxGeometry relative="1" as="geometry" />
        </mxCell>
        <mxCell id="A5XbHr8AYuqLLg5sCwWL-1" value="Operação" style="rounded=0;whiteSpace=wrap;html=1;fillColor=#F2CC8F;strokeColor=#E07A5F;fontColor=#393C56;" vertex="1" parent="1">
          <mxGeometry x="260" y="420" width="120" height="60" as="geometry" />
        </mxCell>
        <mxCell id="A5XbHr8AYuqLLg5sCwWL-2" value="Administrativo&amp;nbsp;" style="rounded=0;whiteSpace=wrap;html=1;fillColor=#F2CC8F;strokeColor=#E07A5F;fontColor=#393C56;" vertex="1" parent="1">
          <mxGeometry x="430" y="420" width="120" height="60" as="geometry" />
        </mxCell>
        <mxCell id="A5XbHr8AYuqLLg5sCwWL-3" value="Comercial" style="rounded=0;whiteSpace=wrap;html=1;fillColor=#F2CC8F;strokeColor=#E07A5F;fontColor=#393C56;" vertex="1" parent="1">
          <mxGeometry x="600" y="420" width="120" height="60" as="geometry" />
        </mxCell>
        <mxCell id="A5XbHr8AYuqLLg5sCwWL-5" style="edgeStyle=orthogonalEdgeStyle;rounded=0;orthogonalLoop=1;jettySize=auto;html=1;exitX=0;exitY=0.5;exitDx=0;exitDy=0;entryX=0.5;entryY=0;entryDx=0;entryDy=0;labelBackgroundColor=#F4F1DE;strokeColor=#E07A5F;fontColor=#393C56;" edge="1" parent="1" source="A5XbHr8AYuqLLg5sCwWL-4" target="A5XbHr8AYuqLLg5sCwWL-1">
          <mxGeometry relative="1" as="geometry" />
        </mxCell>
        <mxCell id="A5XbHr8AYuqLLg5sCwWL-6" style="edgeStyle=orthogonalEdgeStyle;rounded=0;orthogonalLoop=1;jettySize=auto;html=1;exitX=0.5;exitY=1;exitDx=0;exitDy=0;entryX=0.5;entryY=0;entryDx=0;entryDy=0;labelBackgroundColor=#F4F1DE;strokeColor=#E07A5F;fontColor=#393C56;" edge="1" parent="1" source="A5XbHr8AYuqLLg5sCwWL-4" target="A5XbHr8AYuqLLg5sCwWL-2">
          <mxGeometry relative="1" as="geometry" />
        </mxCell>
        <mxCell id="A5XbHr8AYuqLLg5sCwWL-7" style="edgeStyle=orthogonalEdgeStyle;rounded=0;orthogonalLoop=1;jettySize=auto;html=1;exitX=1;exitY=0.5;exitDx=0;exitDy=0;entryX=0.5;entryY=0;entryDx=0;entryDy=0;labelBackgroundColor=#F4F1DE;strokeColor=#E07A5F;fontColor=#393C56;" edge="1" parent="1" source="A5XbHr8AYuqLLg5sCwWL-4" target="A5XbHr8AYuqLLg5sCwWL-3">
          <mxGeometry relative="1" as="geometry" />
        </mxCell>
        <mxCell id="A5XbHr8AYuqLLg5sCwWL-4" value="Ceo`s" style="rounded=0;whiteSpace=wrap;html=1;fillColor=#F2CC8F;strokeColor=#E07A5F;fontColor=#393C56;" vertex="1" parent="1">
          <mxGeometry x="430" y="230" width="120" height="60" as="geometry" />
        </mxCell>
        <mxCell id="A5XbHr8AYuqLLg5sCwWL-8" value="Produção" style="rounded=0;whiteSpace=wrap;html=1;fillColor=#F2CC8F;strokeColor=#E07A5F;fontColor=#393C56;" vertex="1" parent="1">
          <mxGeometry x="260" y="620" width="120" height="60" as="geometry" />
        </mxCell>
        <mxCell id="A5XbHr8AYuqLLg5sCwWL-10" value="Financeiro&amp;nbsp;&lt;br&gt;" style="rounded=0;whiteSpace=wrap;html=1;fillColor=#F2CC8F;strokeColor=#E07A5F;fontColor=#393C56;" vertex="1" parent="1">
          <mxGeometry x="430" y="620" width="120" height="60" as="geometry" />
        </mxCell>
        <mxCell id="A5XbHr8AYuqLLg5sCwWL-14" value="Marketing" style="rounded=0;whiteSpace=wrap;html=1;fillColor=#F2CC8F;strokeColor=#E07A5F;fontColor=#393C56;" vertex="1" parent="1">
          <mxGeometry x="707" y="630" width="120" height="60" as="geometry" />
        </mxCell>
        <mxCell id="A5XbHr8AYuqLLg5sCwWL-16" value="vendas" style="rounded=0;whiteSpace=wrap;html=1;fillColor=#F2CC8F;strokeColor=#E07A5F;fontColor=#393C56;" vertex="1" parent="1">
          <mxGeometry x="710" y="710" width="120" height="60" as="geometry" />
        </mxCell>
        <mxCell id="A5XbHr8AYuqLLg5sCwWL-20" value="" style="edgeStyle=orthogonalEdgeStyle;rounded=0;orthogonalLoop=1;jettySize=auto;html=1;labelBackgroundColor=#F4F1DE;strokeColor=#E07A5F;fontColor=#393C56;" edge="1" parent="1" source="A5XbHr8AYuqLLg5sCwWL-18" target="A5XbHr8AYuqLLg5sCwWL-8">
          <mxGeometry relative="1" as="geometry" />
        </mxCell>
        <mxCell id="A5XbHr8AYuqLLg5sCwWL-18" value="Gerente de produção" style="rounded=0;whiteSpace=wrap;html=1;fillColor=#F2CC8F;strokeColor=#E07A5F;fontColor=#393C56;" vertex="1" parent="1">
          <mxGeometry x="260" y="524.5" width="120" height="60" as="geometry" />
        </mxCell>
        <mxCell id="A5XbHr8AYuqLLg5sCwWL-22" value="" style="edgeStyle=orthogonalEdgeStyle;rounded=0;orthogonalLoop=1;jettySize=auto;html=1;labelBackgroundColor=#F4F1DE;strokeColor=#E07A5F;fontColor=#393C56;" edge="1" parent="1" source="A5XbHr8AYuqLLg5sCwWL-21" target="A5XbHr8AYuqLLg5sCwWL-2">
          <mxGeometry relative="1" as="geometry" />
        </mxCell>
        <mxCell id="A5XbHr8AYuqLLg5sCwWL-23" value="" style="edgeStyle=orthogonalEdgeStyle;rounded=0;orthogonalLoop=1;jettySize=auto;html=1;labelBackgroundColor=#F4F1DE;strokeColor=#E07A5F;fontColor=#393C56;" edge="1" parent="1" source="A5XbHr8AYuqLLg5sCwWL-21" target="A5XbHr8AYuqLLg5sCwWL-10">
          <mxGeometry relative="1" as="geometry" />
        </mxCell>
        <mxCell id="A5XbHr8AYuqLLg5sCwWL-21" value="Gerente financeiro" style="rounded=0;whiteSpace=wrap;html=1;fillColor=#F2CC8F;strokeColor=#E07A5F;fontColor=#393C56;" vertex="1" parent="1">
          <mxGeometry x="430" y="525" width="120" height="60" as="geometry" />
        </mxCell>
        <mxCell id="A5XbHr8AYuqLLg5sCwWL-25" value="" style="edgeStyle=orthogonalEdgeStyle;rounded=0;orthogonalLoop=1;jettySize=auto;html=1;labelBackgroundColor=#F4F1DE;strokeColor=#E07A5F;fontColor=#393C56;" edge="1" parent="1" source="A5XbHr8AYuqLLg5sCwWL-24" target="A5XbHr8AYuqLLg5sCwWL-3">
          <mxGeometry relative="1" as="geometry" />
        </mxCell>
        <mxCell id="A5XbHr8AYuqLLg5sCwWL-26" value="" style="edgeStyle=orthogonalEdgeStyle;rounded=0;orthogonalLoop=1;jettySize=auto;html=1;labelBackgroundColor=#F4F1DE;strokeColor=#E07A5F;fontColor=#393C56;" edge="1" parent="1" source="A5XbHr8AYuqLLg5sCwWL-24" target="A5XbHr8AYuqLLg5sCwWL-14">
          <mxGeometry relative="1" as="geometry" />
        </mxCell>
        <mxCell id="A5XbHr8AYuqLLg5sCwWL-27" style="edgeStyle=orthogonalEdgeStyle;rounded=0;orthogonalLoop=1;jettySize=auto;html=1;exitX=0.25;exitY=1;exitDx=0;exitDy=0;entryX=0;entryY=0.75;entryDx=0;entryDy=0;labelBackgroundColor=#F4F1DE;strokeColor=#E07A5F;fontColor=#393C56;" edge="1" parent="1" source="A5XbHr8AYuqLLg5sCwWL-24" target="A5XbHr8AYuqLLg5sCwWL-16">
          <mxGeometry relative="1" as="geometry" />
        </mxCell>
        <mxCell id="A5XbHr8AYuqLLg5sCwWL-24" value="Gerente comercial" style="rounded=0;whiteSpace=wrap;html=1;fillColor=#F2CC8F;strokeColor=#E07A5F;fontColor=#393C56;" vertex="1" parent="1">
          <mxGeometry x="600" y="525" width="120" height="60" as="geometry" />
        </mxCell>
      </root>
    </mxGraphModel>
  </diagram>
</mxfile>
